# xmcd CD database file
#
# Track frame offsets:
#	150
#	3542
#	24664
#	39551
#	57768
#	74225
#	87423
#	103295
#	107771
#	122535
#	127923
#	140311
#	158738
#	163488
#
# Disc length: 2333 seconds
#
# Revision: 0
# Processed by: cddbd v1.5.2PL0 Copyright (c) Steve Scherf et al.
# Submitted via: CDex 1.70beta2
#
DISCID=c4091b0e
DTITLE=Sweet Swing for HERSHEY’S  - Kenichiro Nishihara
DYEAR=2011
DGENRE=Jazz
TTITLE0=Waltz For Debby(intro) 
TTITLE1=Waltz For Debby feat. Maia Hirasawa 
TTITLE2=LOVE feat. SHANTI 
TTITLE3=Hershey Bar feat. Sari Nakamura 
TTITLE4=It's Only A Paper Moon feat. Yuka Deguchi
TTITLE5=Mister Sandman feat.日之内エミ 
TTITLE6=Cheek to Cheek feat. HanaH 
TTITLE7=Sweet Swing Interlude 
TTITLE8=Baby Baby feat. Tamala 
TTITLE9=Kitty(Baby Baby Interlude)feat. Tamala 
TTITLE10=Down With Love feat. Sari Nakamura 
TTITLE11=Why Don't You Do Right feat. Yuka Deguchi
TTITLE12=Sweet Swing Outro 
TTITLE13=Anthropology[Bonus Track] 
EXTD=YEAR: 2011
EXTT0=
EXTT1=
EXTT2=
EXTT3=
EXTT4=
EXTT5=
EXTT6=
EXTT7=
EXTT8=
EXTT9=
EXTT10=
EXTT11=
EXTT12=
EXTT13=
PLAYORDER=
